# xmcd
#
# Track frame offsets:
#	183
#	12743
#	23518
#	33895
#	45290
#	58763
#	70080
#	86505
#	99285
#	109963
#	121545
#	135130
#	148018
#	158303
#	173218
#
# Disc length: 2495 seconds
#
# Revision: 0
# Processed by: cddbd v1.5.1PL0 Copyright (c) Steve Scherf et al.
# Submitted via: audiograbber 1.83.01
#
DISCID=ab09bd0f
DTITLE=Various Artist - Giants Of Country and Western
DYEAR=1900
DGENRE=Country
TTITLE0=Frankie Laine - High Noon
TTITLE1=Frankie Laine - Sixteen Tons
TTITLE2=Frankie Laine - I Believe
TTITLE3=Frankie Laine - Answer Me
TTITLE4=Stu Stevens - Love Me Tender
TTITLE5=Stu Stevens - Sunday Girl
TTITLE6=Stu Stevens - Can't Touch Her At All
TTITLE7=Johnny Cash - Folsom Prisom Blues
TTITLE8=Johnny Cash - You Win Again
TTITLE9=Don Williams - Follow Me Back To Louisville
TTITLE10=Don Williams - Ruby Tuesday
TTITLE11=Don Williams - Where Do I Go From Here
TTITLE12=Buddy Knox - Devil Woman
TTITLE13=Buddy Knox - Rock Your Little Baby To Sleep
TTITLE14=Buddy Knox - I Washed My Hands
EXTD=
EXTT0=
EXTT1=
EXTT2=
EXTT3=
EXTT4=
EXTT5=
EXTT6=
EXTT7=
EXTT8=
EXTT9=
EXTT10=
EXTT11=
EXTT12=
EXTT13=
EXTT14=
PLAYORDER=
